<svg xmlns="http://www.w3.org/2000/svg" xmlns:svg="http://www.w3.org/2000/svg" id="svg8" width="512" height="512" version="1.1" viewBox="0 0 135.467 135.467"><metadata id="metadata5"/><path id="rect3946" style="fill:#bebebe;fill-opacity:1;stroke:none;stroke-width:0;stroke-linejoin:round;stroke-miterlimit:4;stroke-dasharray:none" d="M 216.87109 0 C 172.61562 0 136.71094 36.577389 136.71094 81.097656 L 136.71094 283.29492 C 136.71094 286.06566 137.32539 288.63503 137.5957 291.32617 C 109.1286 314.95812 91.835749 349.62035 91.835938 386.96484 C 91.835711 455.82791 148.00802 511.9989 216.87109 512 C 285.73507 512.00026 341.90452 455.82886 341.9043 386.96484 C 341.90445 349.62387 324.60672 314.96586 296.14453 291.33398 C 296.41477 288.64077 297.03125 286.066 297.03125 283.29492 L 297.03125 81.097656 C 297.03125 36.577389 261.12657 1.8947806e-14 216.87109 0 z M 216.87109 32.289062 C 243.54613 32.289062 264.74219 53.657793 264.74219 81.097656 L 264.74219 201.78516 L 168.99219 201.78516 L 168.99219 81.097656 C 168.99219 53.657793 190.19606 32.289062 216.87109 32.289062 z M 324.92773 83.671875 L 324.92773 122.80273 L 420.16406 122.80273 L 420.16406 83.671875 L 324.92773 83.671875 z M 324.92773 156.79883 L 324.92773 195.92969 L 420.16406 195.92969 L 420.16406 156.79883 L 324.92773 156.79883 z M 324.92773 229.92578 L 324.92773 269.05664 L 420.16406 269.05664 L 420.16406 229.92578 L 324.92773 229.92578 z" transform="scale(0.26458332)"/></svg>